<svg id="Group_9292" data-name="Group 9292" xmlns="http://www.w3.org/2000/svg" width="139.758" height="19.518" viewBox="0 0 139.758 19.518">
  <path id="Path_363" data-name="Path 363" d="M363.922,150.526,358.606,164.1h-1.755l-5.316-13.571V164.1h-4.014V145.238h5.627L357.73,157l4.582-11.763h5.655V164.1h-4.043Z" transform="translate(-347.521 -144.927)" fill="#fff"/>
  <path id="Path_364" data-name="Path 364" d="M482.381,148.774h-2.939l-2.574,1.263v-4.8h15.042v4.376l-2.151-.841h-3.336V164.1h-4.044Z" transform="translate(-433.542 -144.929)" fill="#fff"/>
  <path id="Path_365" data-name="Path 365" d="M721.525,157.339h-2.938V164.1h-4.014V148.49l-2.315-3.252H723.4c3.93,0,6.333,2.573,6.333,6.08a5.411,5.411,0,0,1-4.128,5.6l4.243,7.182h-4.609Zm1.273-8.655h-4.211v5.2H722.8a2.61,2.61,0,0,0,.42-5.2,2.671,2.671,0,0,0-.42,0Z" transform="translate(-590.088 -144.927)" fill="#fff"/>
  <path id="Path_366" data-name="Path 366" d="M428.976,160.847h-8.423l-1.187,3.251h-4.412L421.4,147.42l-1.471-2.179h7.348l7.266,18.859h-4.382Zm-7.351-3.48h6.25l-3.109-8.655Z" transform="translate(-392.367 -144.929)" fill="#fff"/>
  <path id="Path_367" data-name="Path 367" d="M540,160.847H531.57l-1.188,3.251h-4.413l6.449-16.678-1.471-2.179H538.3l7.266,18.859h-4.382Zm-7.351-3.48h6.25l-3.111-8.655Z" transform="translate(-466.197 -144.929)" fill="#fff"/>
  <path id="Path_368" data-name="Path 368" d="M604.047,156.431a5.573,5.573,0,0,1-5.672,4.11h-3.421V148.748h3.421c3.125,0,5.053,1.675,5.682,4.073a10.561,10.561,0,0,1,1.89-4.667,10.209,10.209,0,0,0-7.57-2.94h-9.538l2.1,3.267v15.591h7.437a10.227,10.227,0,0,0,7.565-2.918A10.571,10.571,0,0,1,604.047,156.431Z" transform="translate(-508.008 -144.907)" fill="#fff"/>
  <path id="Path_369" data-name="Path 369" d="M656.635,144.31a9.758,9.758,0,1,1,0,19.514,9.757,9.757,0,0,1-.48-19.509q.241-.007.48,0Zm0,3.563c-3.48,0-5.711,2.658-5.711,6.194,0,3.506,2.233,6.194,5.711,6.194s5.74-2.685,5.74-6.194C662.375,150.53,660.113,147.873,656.635,147.873Z" transform="translate(-546.447 -144.31)" fill="#fff"/>
</svg>
